<svg width="56" height="57" viewBox="0 0 56 57" fill="none" xmlns="http://www.w3.org/2000/svg">
<path d="M25.714 21.3576C38.9686 21.3576 49.7135 16.9925 49.7135 11.6077C49.7135 6.22298 38.9686 1.85779 25.714 1.85779C12.4595 1.85779 1.7146 6.22298 1.7146 11.6077C1.7146 16.9925 12.4595 21.3576 25.714 21.3576Z" stroke="#E862FE" stroke-width="2.3"/>
<path d="M1.71521 31.1078C1.71521 31.1078 1.71521 38.723 1.71521 44.1077C1.71521 49.4925 12.4601 53.8577 25.7143 53.8577C38.9687 53.8577 49.7146 49.4925 49.7146 44.1077C49.7146 41.42 49.7146 31.1078 49.7146 31.1078" stroke="#E862FE" stroke-width="2.3" stroke-linecap="square"/>
<path d="M1.71521 11.6078C1.71521 11.6078 1.71521 22.473 1.71521 27.8576C1.71521 33.2424 12.4601 37.6077 25.7143 37.6077C38.9687 37.6077 49.7146 33.2424 49.7146 27.8576C49.7146 25.1699 49.7146 11.6078 49.7146 11.6078" stroke="#E862FE" stroke-width="2.3"/>
</svg>
